REM DIRINDEX 1\8,1\2\11,1\3\12,1\3\14,1\5\15,1\5\16,1\6\17,1\6\18,1\4\19,1\4\20,1\4\21,1\4\22,1\7\23,1\7\24,1\7\25,1\2\9\26,1\2\9\27,1\2\10\28,1\2\10\29,1\2\10\30,1\2\10\31,1\2\10\32,1\3\13\33,1\3\13\34,1\3\13\35
REM DIRNAME folder01,folder02,folder03,folder04,folder05,folder06,folder07,folder08,folder09,folder10,folder11,folder12,folder13,folder14,folder15,folder16,folder17,folder18,folder19,folder20,folder21,folder22,folder23,folder24,folder25,folder26,folder27,folder28,folder29,folder30,folder31,folder32,folder33,folder34,folder35
TITLE ""
FILE "165 165_ènåÍUNIT6_SET3.mp3" MP3
  TRACK 01 AUDIO
    TITLE "25:cjc123_4567"
    INDEX 01 00:00:00
  TRACK 02 AUDIO
    TITLE "0:"
    INDEX 01 00:02:53
  TRACK 03 AUDIO
    TITLE "23:cjc123_4568"
    INDEX 01 00:03:29
  TRACK 04 AUDIO
    TITLE "0:"
    INDEX 01 00:04:36
  TRACK 05 AUDIO
    TITLE "24:cjc123_4569"
    INDEX 01 00:05:65
  TRACK 06 AUDIO
    TITLE "0:"
    INDEX 01 00:06:73
  TRACK 07 AUDIO
    TITLE "23:cjc123_4570"
    INDEX 01 00:08:44
  TRACK 08 AUDIO
    TITLE "0:"
    INDEX 01 00:09:57
  TRACK 09 AUDIO
    TITLE "24:cjc123_4571"
    INDEX 01 00:11:23
  TRACK 10 AUDIO
    TITLE "0:"
    INDEX 01 00:12:46
  TRACK 11 AUDIO
    TITLE "23:cjc123_4572"
    INDEX 01 00:14:21
  TRACK 12 AUDIO
    TITLE "0:"
    INDEX 01 00:15:48
  TRACK 13 AUDIO
    TITLE "24:cjc123_4573"
    INDEX 01 00:17:10
  TRACK 14 AUDIO
    TITLE "0:"
    INDEX 01 00:18:29
  TRACK 15 AUDIO
    TITLE "23:cjc123_4574"
    INDEX 01 00:20:02
  TRACK 16 AUDIO
    TITLE "0:"
    INDEX 01 00:21:09
  TRACK 17 AUDIO
    TITLE "24:cjc123_4575"
    INDEX 01 00:23:01
  TRACK 18 AUDIO
    TITLE "0:"
    INDEX 01 00:24:43
  TRACK 19 AUDIO
    TITLE "23:cjc123_4576"
    INDEX 01 00:26:30
  TRACK 20 AUDIO
    TITLE "0:"
    INDEX 01 00:27:55
  TRACK 21 AUDIO
    TITLE "24:cjc123_4577"
    INDEX 01 00:29:17
  TRACK 22 AUDIO
    TITLE "0:"
    INDEX 01 00:30:34
  TRACK 23 AUDIO
    TITLE "23:cjc123_4578"
    INDEX 01 00:32:07
  TRACK 24 AUDIO
    TITLE "0:"
    INDEX 01 00:33:17
  TRACK 25 AUDIO
    TITLE "24:cjc123_4579"
    INDEX 01 00:34:42
  TRACK 26 AUDIO
    TITLE "0:"
    INDEX 01 00:35:47
  TRACK 27 AUDIO
    TITLE "23:cjc123_4580"
    INDEX 01 00:37:07
  TRACK 28 AUDIO
    TITLE "0:"
    INDEX 01 00:38:45
  TRACK 29 AUDIO
    TITLE "24:cjc123_4581"
    INDEX 01 00:39:74
  TRACK 30 AUDIO
    TITLE "0:"
    INDEX 01 00:41:20
  TRACK 31 AUDIO
    TITLE "23:cjc123_4582"
    INDEX 01 00:42:55
  TRACK 32 AUDIO
    TITLE "0:"
    INDEX 01 00:44:03
  TRACK 33 AUDIO
    TITLE "24:cjc123_4583"
    INDEX 01 00:45:51
  TRACK 34 AUDIO
    TITLE "0:"
    INDEX 01 00:47:11
  TRACK 35 AUDIO
    TITLE "23:cjc123_4584"
    INDEX 01 00:48:69
  TRACK 36 AUDIO
    TITLE "0:"
    INDEX 01 00:49:65
  TRACK 37 AUDIO
    TITLE "24:cjc123_4585"
    INDEX 01 00:51:48
  TRACK 38 AUDIO
    TITLE "0:"
    INDEX 01 00:53:13
  TRACK 39 AUDIO
    TITLE "23:cjc123_4586"
    INDEX 01 00:55:03
  TRACK 40 AUDIO
    TITLE "0:"
    INDEX 01 00:56:29
  TRACK 41 AUDIO
    TITLE "24:cjc123_4587"
    INDEX 01 00:57:68
  TRACK 42 AUDIO
    TITLE "0:"
    INDEX 01 00:59:12
  TRACK 43 AUDIO
    TITLE "23:cjc123_4588"
    INDEX 01 01:00:64
  TRACK 44 AUDIO
    TITLE "0:"
    INDEX 01 01:02:24
  TRACK 45 AUDIO
    TITLE "24:cjc123_4589"
    INDEX 01 01:03:59
  TRACK 46 AUDIO
    TITLE "0:"
    INDEX 01 01:05:01
  TRACK 47 AUDIO
    TITLE "23:cjc123_4590"
    INDEX 01 01:06:40
  TRACK 48 AUDIO
    TITLE "0:"
    INDEX 01 01:08:19
  TRACK 49 AUDIO
    TITLE "24:cjc123_4591"
    INDEX 01 01:09:56
  TRACK 50 AUDIO
    TITLE "0:"
    INDEX 01 01:10:71
  TRACK 51 AUDIO
    TITLE "23:cjc123_4592"
    INDEX 01 01:12:46
  TRACK 52 AUDIO
    TITLE "0:"
    INDEX 01 01:13:32
  TRACK 53 AUDIO
    TITLE "24:cjc123_4593"
    INDEX 01 01:14:53
  TRACK 54 AUDIO
    TITLE "0:"
    INDEX 01 01:15:58
  TRACK 55 AUDIO
    TITLE "23:cjc123_4594"
    INDEX 01 01:17:16
  TRACK 56 AUDIO
    TITLE "0:"
    INDEX 01 01:18:27
  TRACK 57 AUDIO
    TITLE "24:cjc123_4595"
    INDEX 01 01:19:64
  TRACK 58 AUDIO
    TITLE "0:"
    INDEX 01 01:21:08
  TRACK 59 AUDIO
    TITLE "23:cjc123_4596"
    INDEX 01 01:22:54
  TRACK 60 AUDIO
    TITLE "0:"
    INDEX 01 01:24:06
  TRACK 61 AUDIO
    TITLE "24:cjc123_4597"
    INDEX 01 01:25:60
  TRACK 62 AUDIO
    TITLE "0:"
    INDEX 01 01:27:18
